<?xml version="1.0" encoding="UTF-8"?>
<svg version="1.1" xmlns="http://www.w3.org/2000/svg" width="208" height="212">
<path d="M0 0 C68.64 0 137.28 0 208 0 C208 69.96 208 139.92 208 212 C139.36 212 70.72 212 0 212 C0 142.04 0 72.08 0 0 Z " fill="#000101" transform="translate(0,0)"/>
<path d="M0 0 C0 0.99 0 1.98 0 3 C2.64 3.66 5.28 4.32 8 5 C8 4.34 8 3.68 8 3 C6.68 2.34 5.36 1.68 4 1 C16.21 1 28.42 1 41 1 C40.67 2.32 40.34 3.64 40 5 C42.64 4.67 45.28 4.34 48 4 C47.505 3.01 47.505 3.01 47 2 C49.58011645 0.70994177 51.4469184 0.86592365 54.3359375 0.85473633 C55.45049316 0.84835648 56.56504883 0.84197662 57.71337891 0.83540344 C58.92171387 0.83429062 60.13004883 0.8331778 61.375 0.83203125 C62.61040527 0.82870285 63.84581055 0.82537445 65.11865234 0.82194519 C67.73469672 0.8168751 70.35074759 0.81453689 72.96679688 0.81469727 C75.65566701 0.81477878 78.34436772 0.80780154 81.03320312 0.79418945 C84.89718891 0.7759497 88.76097558 0.77096445 92.625 0.76953125 C93.83333496 0.76234573 95.04166992 0.75516022 96.28662109 0.74775696 C97.95845459 0.7523719 97.95845459 0.7523719 99.6640625 0.75708008 C100.64842285 0.75565506 101.6327832 0.75423004 102.64697266 0.75276184 C105 1 105 1 107 3 C107.24609566 5.16703224 107.24609566 5.16703224 107.24050903 7.9100647 C107.24463303 9.46660011 107.24463303 9.46660011 107.24884033 11.05458069 C107.2380545 12.76900612 107.2380545 12.76900612 107.22705078 14.51806641 C107.22734283 15.71804764 107.22763489 16.91802887 107.22793579 18.15437317 C107.22677912 21.44970186 107.21673146 24.74478163 107.20278788 28.04006624 C107.19030657 31.48205619 107.18911208 34.92404926 107.18673706 38.36605835 C107.18051462 44.88610344 107.16409353 51.40608166 107.14403808 57.92609727 C107.12170279 65.34800029 107.11069163 72.76990645 107.10064721 80.19183469 C107.07972792 95.46126189 107.04453717 110.73062233 107 126 C107.66 126 108.32 126 109 126 C109.50833591 127.24663331 110.00631145 128.49749387 110.5 129.75 C110.7784375 130.44609375 111.056875 131.1421875 111.34375 131.859375 C112 134 112 134 112 138 C112.99 138.33 113.98 138.66 115 139 C116.03485877 141.31808364 117.0355414 143.65175298 118 146 C118.66 146.33 119.32 146.66 120 147 C121.13004143 149.54259321 122.0492973 152.13556758 123 154.75 C123.78431361 157.15703483 123.78431361 157.15703483 126 158 C126 159.32 126 160.64 126 162 C125.34 162.66 124.68 163.32 124 164 C123.67 164.66 123.34 165.32 123 166 C70.2 166 17.4 166 -37 166 C-37 160 -37 160 -35.5390625 157.83984375 C-34.59160156 156.89818359 -34.59160156 156.89818359 -33.625 155.9375 C-30.88223292 153.05676677 -29.27264913 150.81794738 -28 147 C-27.34 146.67 -26.68 146.34 -26 146 C-25.67 145.01 -25.34 144.02 -25 143 C-24.360625 142.38125 -23.72125 141.7625 -23.0625 141.125 C-20.85208757 138.84760538 -19.99430634 136.98291902 -19 134 C-18.34 134 -17.68 134 -17 134 C-16.71125 132.989375 -16.4225 131.97875 -16.125 130.9375 C-15.44339913 128.55189694 -14.74308453 126.18244485 -13.99902344 123.81469727 C-9.73197804 107.52129933 -11.84495894 88.49426586 -11.86962891 71.69921875 C-11.87540595 67.74276978 -11.871983 63.78638749 -11.86605644 59.8299408 C-11.86245493 56.76570118 -11.86358613 53.70147762 -11.86618423 50.63723755 C-11.86685052 49.176361 -11.86603552 47.71548299 -11.86370468 46.25460815 C-11.86117637 44.23093696 -11.86571051 42.20726061 -11.87060547 40.18359375 C-11.87140106 39.03431396 -11.87219666 37.88503418 -11.87301636 36.70092773 C-11.81596442 34.03080848 -11.81596442 34.03080848 -13 32 C-13.24411868 27.92178199 -13.1852078 23.83469875 -13.1875 19.75 C-13.19974609 18.61691406 -13.21199219 17.48382813 -13.22460938 16.31640625 C-13.22654297 15.21683594 -13.22847656 14.11726563 -13.23046875 12.984375 C-13.23457764 11.98116211 -13.23868652 10.97794922 -13.24291992 9.94433594 C-12.97355768 6.67950316 -12.23318488 4.02984337 -11 1 C-7.7028755 -0.70962011 -3.64325179 -0.07006253 0 0 Z " fill="#1E2122" transform="translate(57,26)"/>
<path d="M0 0 C68.64 0 137.28 0 208 0 C208 3.96 208 7.92 208 12 C207.13383749 11.99815641 206.26767498 11.99631283 205.37526512 11.99441338 C184.20412703 11.95005594 163.03299706 11.91705725 141.86182213 11.89637566 C131.62319637 11.88610586 121.38460181 11.87212873 111.14599609 11.84912109 C102.21186888 11.82905455 93.2777643 11.81625243 84.34361517 11.81182301 C79.62230158 11.80923786 74.90105265 11.80325366 70.17975998 11.78853989 C46.54406485 11.61181477 46.54406485 11.61181477 22.95166016 12.82470703 C22.11276434 12.89403883 21.27386852 12.96337063 20.40955162 13.03480339 C15.44288713 13.55385677 11.38510935 14.55185561 7 17 C5.93238636 18.85167144 5.93238636 18.85167144 6 21 C5.94778793 21.75242477 5.89557587 22.50484955 5.84178162 23.28007507 C5.82623734 24.12697403 5.81069305 24.97387299 5.79467773 25.84643555 C5.77473755 26.83249283 5.75479736 27.81855011 5.73425293 28.83448792 C5.7175354 29.92422409 5.70081787 31.01396027 5.68359375 32.13671875 C5.66276733 33.3118956 5.64194092 34.48707245 5.6204834 35.69786072 C5.56483844 38.99618923 5.51445179 42.29450491 5.46757126 45.59296417 C5.43748413 47.68860549 5.40555858 49.78421253 5.37332153 51.87982178 C4.66760794 98.58104206 4.91127163 145.29507684 5 192 C5.66 192 6.32 192 7 192 C7.33 193.98 7.66 195.96 8 198 C8.969375 198.309375 9.93875 198.61875 10.9375 198.9375 C14 200 14 200 15 201 C21.01804649 202.05940232 27.15535286 202.17744448 33.25 202.28125 C34.53547729 202.30886414 34.53547729 202.30886414 35.84692383 202.33703613 C38.56455346 202.39515999 41.28224422 202.44813628 44 202.5 C46.68918196 202.5521367 49.37830648 202.60562255 52.06738281 202.66296387 C53.72942948 202.69835128 55.39153877 202.73099005 57.05371094 202.7598877 C62.1563358 202.86779583 67.22616954 203.14885348 72.31811523 203.49780273 C84.58559592 204.28064454 96.87910548 204.22845533 109.16676259 204.30332303 C112.65273818 204.32550695 116.1386747 204.35273382 119.62461853 204.37937927 C126.19723432 204.42887576 132.7698723 204.47397031 139.34253067 204.51740164 C146.8373668 204.56714706 154.33216368 204.62192423 161.82696164 204.67708123 C177.21793796 204.79023862 192.60895068 204.89721634 208 205 C208 207.31 208 209.62 208 212 C139.36 212 70.72 212 0 212 C0 142.04 0 72.08 0 0 Z " fill="#1F2528" transform="translate(0,0)"/>
<path d="M0 0 C12.21 0 24.42 0 37 0 C36.67 1.32 36.34 2.64 36 4 C38.64 4 41.28 4 44 4 C44.495 5.98 44.495 5.98 45 8 C41.86650268 9.04449911 41.01031744 8.93423645 38 8 C38 9.32 38 10.64 38 12 C38.763125 12.268125 39.52625 12.53625 40.3125 12.8125 C44.3772242 14.60854093 44.3772242 14.60854093 46 17 C46.5 19.9375 46.5 19.9375 46 23 C43.32797995 25.98637535 41.81657264 26.91994386 37.8125 27.3125 C35 27 35 27 33 26 C33 24.68 33 23.36 33 22 C35.64 22 38.28 22 41 22 C41 20.68 41 19.36 41 18 C38.69 17.34 36.38 16.68 34 16 C34 16.99 34 17.98 34 19 C33.34 19 32.68 19 32 19 C32 21.31 32 23.62 32 26 C29.1875 26.625 29.1875 26.625 26 27 C25.01 26.34 24.02 25.68 23 25 C22.70703125 22.3984375 22.70703125 22.3984375 22.8125 19.375 C22.83957031 18.37210938 22.86664063 17.36921875 22.89453125 16.3359375 C22.92933594 15.56507812 22.96414062 14.79421875 23 14 C18.85906302 13.79029441 18.85906302 13.79029441 15 15 C14.5316735 17.58605332 14.5316735 17.58605332 14.375 20.5625 C14.30023438 21.57441406 14.22546875 22.58632813 14.1484375 23.62890625 C14.09945312 24.41136719 14.05046875 25.19382812 14 26 C12.35 26 10.7 26 9 26 C9 23.36 9 20.72 9 18 C7.68 18.99 6.36 19.98 5 21 C4.401875 20.690625 3.80375 20.38125 3.1875 20.0625 C0.91043228 18.89790296 0.91043228 18.89790296 -2 18 C-2 20.64 -2 23.28 -2 26 C-3.65 26 -5.3 26 -7 26 C-7.02887814 22.52085059 -7.04675687 19.04173169 -7.0625 15.5625 C-7.07087891 14.56927734 -7.07925781 13.57605469 -7.08789062 12.55273438 C-7.09111328 11.60849609 -7.09433594 10.66425781 -7.09765625 9.69140625 C-7.10289307 8.81685791 -7.10812988 7.94230957 -7.11352539 7.04125977 C-7 5 -7 5 -6 4 C-4.31391034 3.92794489 -2.62499341 3.91613932 -0.9375 3.9375 C-0.01839844 3.94652344 0.90070312 3.95554687 1.84765625 3.96484375 C2.55792969 3.97644531 3.26820312 3.98804688 4 4 C4 3.34 4 2.68 4 2 C2.68 1.34 1.36 0.68 0 0 Z " fill="#232727" transform="translate(61,27)"/>
<path d="M0 0 C6.47782258 -0.12701613 6.47782258 -0.12701613 9.3125 0.5625 C11.95224813 0.99222644 13.79098133 0.85819246 16.42553711 0.53564453 C22.25355222 -0.08603319 28.02226221 -0.14422337 33.87890625 -0.1328125 C34.97218735 -0.13376923 36.06546844 -0.13472595 37.19187927 -0.13571167 C39.48184263 -0.13638764 41.77180798 -0.13457434 44.06176758 -0.13037109 C47.58353893 -0.12496772 51.10518545 -0.13035956 54.62695312 -0.13671875 C56.85677112 -0.13605878 59.08658903 -0.13477929 61.31640625 -0.1328125 C62.90214195 -0.13584885 62.90214195 -0.13584885 64.51991272 -0.13894653 C65.97294044 -0.13421829 65.97294044 -0.13421829 67.45532227 -0.12939453 C68.31118423 -0.12859894 69.1670462 -0.12780334 70.04884338 -0.12698364 C72 0 72 0 73 1 C74.3576712 1.10065264 75.72063562 1.13082112 77.08203125 1.1328125 C77.97792969 1.13474609 78.87382813 1.13667969 79.796875 1.13867188 C80.79203125 1.13416016 81.7871875 1.12964844 82.8125 1.125 C83.84246094 1.12306641 84.87242188 1.12113281 85.93359375 1.11914062 C101.62676857 1.0372157 117.3154085 0.4924354 133 0 C134.0625 2.375 134.0625 2.375 135 5 C134.67 5.66 134.34 6.32 134 7 C133.89554621 8.60885459 133.85346422 10.22193747 133.84178162 11.83413696 C133.8319928 12.85499893 133.82220398 13.8758609 133.81211853 14.92765808 C133.80636307 16.05190689 133.8006076 17.1761557 133.79467773 18.33447266 C133.78477814 19.51494675 133.77487854 20.69542084 133.76467896 21.91166687 C133.73845843 25.15316782 133.71660989 28.39466343 133.69667697 31.63620806 C133.67483152 35.02217815 133.6474358 38.40810314 133.62062073 41.79403687 C133.57067431 48.20777728 133.52574273 54.6215427 133.48259836 61.03533208 C133.43324262 68.33635754 133.37831834 75.63733774 133.32291877 82.93831944 C133.20906882 97.95883747 133.10223636 112.9793981 133 128 C132.67 128 132.34 128 132 128 C131.99576806 127.36701272 131.99153612 126.73402544 131.98717594 126.08185673 C131.88400653 110.70125599 131.77538964 95.32070494 131.66066074 79.9401865 C131.60531168 72.50237687 131.55182698 65.06456244 131.50268555 57.62670898 C131.45986426 51.1461565 131.41359157 44.66563958 131.36312145 38.18514198 C131.33650387 34.75171548 131.31165047 31.31829611 131.29092598 27.88482857 C131.26776274 24.05801819 131.23689601 20.23129173 131.20532227 16.40454102 C131.1995668 15.25799545 131.19381134 14.11144989 131.18788147 12.93016052 C131.17319824 11.3756871 131.17319824 11.3756871 131.15821838 9.78981018 C131.15176583 8.88368768 131.14531328 7.97756517 131.1386652 7.04398441 C131.22548604 5.00627782 131.22548604 5.00627782 130 4 C128.2507128 3.90634994 126.49763746 3.88255562 124.74584961 3.88647461 C123.06421974 3.88658791 123.06421974 3.88658791 121.34861755 3.88670349 C120.1288472 3.89186478 118.90907684 3.89702606 117.65234375 3.90234375 C115.7899984 3.90446617 115.7899984 3.90446617 113.89002991 3.90663147 C110.58394509 3.91129409 107.27792854 3.92028503 103.97186279 3.93133545 C100.6003885 3.94155173 97.22890717 3.94612955 93.85742188 3.95117188 C87.23826225 3.96222605 80.61913507 3.97898264 74 4 C74 4.99 74 5.98 74 7 C71.03 7 68.06 7 65 7 C65 6.01 65 5.02 65 4 C53.78 4 42.56 4 31 4 C31.66 4.33 32.32 4.66 33 5 C33 5.66 33 6.32 33 7 C30.03 6.67 27.06 6.34 24 6 C24.33 4.68 24.66 3.36 25 2 C21.37 2.66 17.74 3.32 14 4 C13.34 7.96 12.68 11.92 12 16 C11.67 16 11.34 16 11 16 C11 13.03 11 10.06 11 7 C9.700625 7.0928125 9.700625 7.0928125 8.375 7.1875 C4.55800967 6.97544498 2.28922464 5.87955693 -1 4 C-0.67 2.68 -0.34 1.36 0 0 Z " fill="#181C1B" transform="translate(32,24)"/>
<path d="M0 0 C11 0 11 0 14 2 C14.42692374 8.61731795 14.42692374 8.61731795 13.39453125 11.9609375 C12.8780551 14.63024987 13.50614103 16.21670361 14.4375 18.75 C14.72496094 19.54921875 15.01242188 20.3484375 15.30859375 21.171875 C15.65083984 22.07679687 15.65083984 22.07679687 16 23 C14.35 23 12.7 23 11 23 C10.74605469 22.36191406 10.49210937 21.72382812 10.23046875 21.06640625 C9.88628906 20.24011719 9.54210937 19.41382812 9.1875 18.5625 C8.85105469 17.73878906 8.51460937 16.91507813 8.16796875 16.06640625 C7.11596912 13.66627512 7.11596912 13.66627512 4 13 C4 16.3 4 19.6 4 23 C2.68 23 1.36 23 0 23 C0 15.41 0 7.82 0 0 Z " fill="#D9DADA" transform="translate(97,94)"/>
<path d="M0 0 C0.99 0 1.98 0 3 0 C3.33 0.99 3.66 1.98 4 3 C4.99 3.33 5.98 3.66 7 4 C7 5.32 7 6.64 7 8 C5.68 8 4.36 8 3 8 C3.33 10.64 3.66 13.28 4 16 C5.32 16.33 6.64 16.66 8 17 C8 17.99 8 18.98 8 20 C5.1875 20.625 5.1875 20.625 2 21 C1.01 20.34 0.02 19.68 -1 19 C-1.29296875 16.3984375 -1.29296875 16.3984375 -1.1875 13.375 C-1.16042969 12.37210938 -1.13335937 11.36921875 -1.10546875 10.3359375 C-1.07066406 9.56507812 -1.03585938 8.79421875 -1 8 C-5.14093698 7.79029441 -5.14093698 7.79029441 -9 9 C-9.4683265 11.58605332 -9.4683265 11.58605332 -9.625 14.5625 C-9.73714844 16.08037109 -9.73714844 16.08037109 -9.8515625 17.62890625 C-9.90054688 18.41136719 -9.94953125 19.19382812 -10 20 C-11.65 20 -13.3 20 -15 20 C-15.02691685 17.54159395 -15.04679802 15.08348118 -15.0625 12.625 C-15.07087891 11.92632812 -15.07925781 11.22765625 -15.08789062 10.5078125 C-15.11328125 5.2265625 -15.11328125 5.2265625 -14 3 C-12.58344207 2.9727585 -11.16672955 2.95349533 -9.75 2.9375 C-8.56664063 2.92009766 -8.56664063 2.92009766 -7.359375 2.90234375 C-5.09308998 2.99614694 -3.1711105 3.36758937 -1 4 C-0.67 2.68 -0.34 1.36 0 0 Z " fill="#D7D7D7" transform="translate(85,33)"/>
<path d="M0 0 C3.42739125 0.0441295 4.85062796 0.10396017 7.8125 1.9375 C9.57415268 4.98035463 9.62992648 6.84682593 9.1875 10.3125 C7.1875 13.3125 7.1875 13.3125 5.2421875 13.82421875 C4.52289063 13.88222656 3.80359375 13.94023438 3.0625 14 C1.78375 14.103125 0.505 14.20625 -0.8125 14.3125 C-0.8125 16.9525 -0.8125 19.5925 -0.8125 22.3125 C-2.4625 22.3125 -4.1125 22.3125 -5.8125 22.3125 C-5.84137814 18.83335059 -5.85925687 15.35423169 -5.875 11.875 C-5.88337891 10.88177734 -5.89175781 9.88855469 -5.90039062 8.86523438 C-5.90361328 7.92099609 -5.90683594 6.97675781 -5.91015625 6.00390625 C-5.91539307 5.12935791 -5.92062988 4.25480957 -5.92602539 3.35375977 C-5.70855592 -0.55648167 -3.40846472 0.0948182 0 0 Z " fill="#D9D9D9" transform="translate(59.8125,30.6875)"/>
<path d="M0 0 C0.66 0.33 1.32 0.66 2 1 C1.67 2.32 1.34 3.64 1 5 C-1.31 5 -3.62 5 -6 5 C-6 5.99 -6 6.98 -6 8 C-5.2575 8.2475 -4.515 8.495 -3.75 8.75 C-0.63442453 10.16617067 1.02560769 11.19028787 3 14 C3.0625 17.5625 3.0625 17.5625 2 21 C-0.99874265 23.73414771 -2.74300929 23.98736111 -6.8125 24.1875 C-7.864375 24.125625 -8.91625 24.06375 -10 24 C-10.33 22.35 -10.66 20.7 -11 19 C-7.04 18.505 -7.04 18.505 -3 18 C-4.16647891 14.73385905 -5.05491245 13.96705253 -8.125 12.125 C-11 10 -11 10 -11.5625 7 C-10.15936232 -0.48340094 -6.88148419 -0.54614954 0 0 Z " fill="#CDCCCC" transform="translate(65,93)"/>
<path d="M0 0 C1.91541138 -0.10841951 3.83259773 -0.18578079 5.75 -0.25 C6.81734375 -0.29640625 7.8846875 -0.3428125 8.984375 -0.390625 C12 0 12 0 14.375 1.59375 C16.54271532 4.80363614 16.40347891 6.91302729 16.25 10.75 C16.21390625 11.92046875 16.1778125 13.0909375 16.140625 14.296875 C16.07101563 15.63492188 16.07101563 15.63492188 16 17 C14.35 16.67 12.7 16.34 11 16 C10.67 12.37 10.34 8.74 10 5 C9.01 5 8.02 5 7 5 C6.93941406 5.69867188 6.87882813 6.39734375 6.81640625 7.1171875 C6.73261719 8.02726562 6.64882812 8.93734375 6.5625 9.875 C6.48128906 10.77992187 6.40007812 11.68484375 6.31640625 12.6171875 C6 15 6 15 5 17 C3.68 17 2.36 17 1 17 C-0.53266582 13.93466836 -0.10276471 10.73245728 -0.0625 7.375 C-0.05798828 6.66859375 -0.05347656 5.9621875 -0.04882812 5.234375 C-0.03703875 3.48954725 -0.01910324 1.744763 0 0 Z " fill="#D4D5D5" transform="translate(122,37)"/>
<path d="M0 0 C0.66 0 1.32 0 2 0 C2 0.66 2 1.32 2 2 C3.98 1.34 5.96 0.68 8 0 C8.66 1.32 9.32 2.64 10 4 C11.98 3.67 13.96 3.34 16 3 C16 4.32 16 5.64 16 7 C15.01 6.67 14.02 6.34 13 6 C11.7058258 7.22880216 11.7058258 7.22880216 10 10 C4.61611038 12.14916979 -0.41522423 12.18825016 -6 11 C-6.33 11.99 -6.66 12.98 -7 14 C-7.99 14 -8.98 14 -10 14 C-9.34 10.37 -8.68 6.74 -8 3 C-6.35 3 -4.7 3 -3 3 C-1.31201173 1.56249809 -1.31201173 1.56249809 0 0 Z " fill="#2D3130" transform="translate(52,145)"/>
<path d="M0 0 C0.33 1.32 0.66 2.64 1 4 C-2.13349732 5.04449911 -2.98968256 4.93423645 -6 4 C-6 5.32 -6 6.64 -6 8 C-5.236875 8.268125 -4.47375 8.53625 -3.6875 8.8125 C0.3772242 10.60854093 0.3772242 10.60854093 2 13 C2.5 15.9375 2.5 15.9375 2 19 C-0.67202005 21.98637535 -2.18342736 22.91994386 -6.1875 23.3125 C-9 23 -9 23 -11 22 C-11 20.68 -11 19.36 -11 18 C-8.36 18 -5.72 18 -3 18 C-3 16.68 -3 15.36 -3 14 C-3.94875 13.71125 -4.8975 13.4225 -5.875 13.125 C-9 12 -9 12 -11 10 C-11.5410628 4.04830918 -11.5410628 4.04830918 -10 1.0625 C-6.73357754 -0.67278693 -3.65648548 -0.17982715 0 0 Z " fill="#D6D6D5" transform="translate(105,31)"/>
<path d="M0 0 C1.890625 0.24609375 1.890625 0.24609375 4 1 C5.046875 2.84765625 5.046875 2.84765625 5.75 5.0625 C5.99234375 5.79597656 6.2346875 6.52945313 6.484375 7.28515625 C6.65453125 7.85105469 6.8246875 8.41695312 7 9 C7.18175781 8.43410156 7.36351563 7.86820312 7.55078125 7.28515625 C7.80214844 6.55167969 8.05351563 5.81820312 8.3125 5.0625 C8.55613281 4.33160156 8.79976562 3.60070312 9.05078125 2.84765625 C10 1 10 1 13 0 C14.53734852 4.74903701 12.96155502 7.97182561 11.3125 12.5 C10.92674805 13.63888672 10.92674805 13.63888672 10.53320312 14.80078125 C9.03426058 19.00665934 7.71008544 22.25615948 4 25 C1.25 24.75 1.25 24.75 -1 24 C-1 23.01 -1 22.02 -1 21 C0.65 20.67 2.3 20.34 4 20 C3.62746094 18.80761719 3.25492187 17.61523438 2.87109375 16.38671875 C2.39277271 14.82045182 1.91493311 13.25403782 1.4375 11.6875 C1.0672168 10.50897461 1.0672168 10.50897461 0.68945312 9.30664062 C0.46064453 8.54931641 0.23183594 7.79199219 -0.00390625 7.01171875 C-0.21861572 6.31522217 -0.4333252 5.61872559 -0.65454102 4.90112305 C-1 3 -1 3 0 0 Z " fill="#D0D3D2" transform="translate(69,99)"/>
<path d="M0 0 C0 7.26 0 14.52 0 22 C-1.32 22 -2.64 22 -4 22 C-4 19.69 -4 17.38 -4 15 C-5.5778125 15.433125 -5.5778125 15.433125 -7.1875 15.875 C-11 16 -11 16 -13.9375 13.375 C-15.95771226 10.06919812 -16.55113893 8.7477447 -16 5 C-14.68 4.67 -13.36 4.34 -12 4 C-11.01 6.31 -10.02 8.62 -9 11 C-8.01 10.67 -7.02 10.34 -6 10 C-6 6.7 -6 3.4 -6 0 C-4 -1 -4 -1 0 0 Z " fill="#D6D8D8" transform="translate(130,102)"/>
<path d="M0 0 C1.125 3.75 1.125 3.75 0 6 C-0.10445379 7.60885459 -0.14653578 9.22193747 -0.15821838 10.83413696 C-0.17290161 12.36542992 -0.17290161 12.36542992 -0.18788147 13.92765808 C-0.19363693 15.05190689 -0.1993924 16.1761557 -0.20532227 17.33447266 C-0.21522186 18.51494675 -0.22512146 19.69542084 -0.23532104 20.91166687 C-0.26154157 24.15316782 -0.28339011 27.39466343 -0.30332303 30.63620806 C-0.32516848 34.02217815 -0.3525642 37.40810314 -0.37937927 40.79403687 C-0.42932569 47.20777728 -0.47425727 53.6215427 -0.51740164 60.03533208 C-0.56675738 67.33635754 -0.62168166 74.63733774 -0.67708123 81.93831944 C-0.79093118 96.95883747 -0.89776364 111.9793981 -1 127 C-1.33 127 -1.66 127 -2 127 C-2 85.42 -2 43.84 -2 1 C-13.55 1 -25.1 1 -37 1 C-37 0.67 -37 0.34 -37 0 C-32.53450019 -0.16821435 -28.06880839 -0.32870773 -23.6027832 -0.48217773 C-22.08480439 -0.5354146 -20.5668969 -0.59072853 -19.04907227 -0.64819336 C-16.86229831 -0.73061847 -14.67537334 -0.80547122 -12.48828125 -0.87890625 C-11.17384033 -0.9260376 -9.85939941 -0.97316895 -8.50512695 -1.02172852 C-5.48006575 -1.00297596 -2.92183626 -0.72984472 0 0 Z " fill="#0E100F" transform="translate(166,25)"/>
<path d="M0 0 C4.29 0 8.58 0 13 0 C11 6 11 6 10 7 C9.69476038 11.65088715 9.69476038 11.65088715 11 16 C10.67 16.99 10.34 17.98 10 19 C9.34 19 8.68 19 8 19 C8 20.32 8 21.64 8 23 C6.35 22.67 4.7 22.34 3 22 C3 19.36 3 16.72 3 14 C4.32 14 5.64 14 7 14 C7 12.68 7 11.36 7 10 C5.68 9.67 4.36 9.34 3 9 C3 8.01 3 7.02 3 6 C-0.27773504 6.75150023 -0.27773504 6.75150023 -2 10 C-2 9.34 -2 8.68 -2 8 C-2.66 7.67 -3.32 7.34 -4 7 C-3.01 6.67 -2.02 6.34 -1 6 C-1 5.34 -1 4.68 -1 4 C-0.01 4 0.98 4 2 4 C2 3.01 2 2.02 2 1 C1.34 0.67 0.68 0.34 0 0 Z " fill="#282B2A" transform="translate(85,27)"/>
<path d="M0 0 C6.47782258 -0.12701613 6.47782258 -0.12701613 9.3125 0.5625 C11.95260524 0.99228457 13.78870121 0.85719367 16.42333984 0.53344727 C22.26550883 -0.08981315 28.04361974 -0.12673189 33.9140625 -0.09765625 C35.55754166 -0.09553383 35.55754166 -0.09553383 37.23422241 -0.09336853 C40.69784395 -0.08781771 44.16139834 -0.07527459 47.625 -0.0625 C49.98828031 -0.05747864 52.35156164 -0.05291685 54.71484375 -0.04882812 C60.47658501 -0.03786444 66.2382877 -0.02117606 72 0 C72.495 0.99 72.495 0.99 73 2 C72.31983826 2.01030746 71.63967651 2.02061493 70.93890381 2.03123474 C63.86623582 2.13933019 56.79369444 2.25392595 49.72119141 2.37231445 C47.08091885 2.41565349 44.44061845 2.4573293 41.80029297 2.49731445 C38.00740158 2.55504166 34.21465021 2.61872949 30.421875 2.68359375 C28.64825592 2.70866249 28.64825592 2.70866249 26.83880615 2.73423767 C25.73796692 2.75418289 24.63712769 2.77412811 23.50292969 2.79467773 C22.53474304 2.81022202 21.5665564 2.8257663 20.56903076 2.84178162 C17.73028993 2.93819778 17.73028993 2.93819778 14 4 C13.34 7.96 12.68 11.92 12 16 C11.67 16 11.34 16 11 16 C11 13.03 11 10.06 11 7 C9.700625 7.0928125 9.700625 7.0928125 8.375 7.1875 C4.55800967 6.97544498 2.28922464 5.87955693 -1 4 C-0.67 2.68 -0.34 1.36 0 0 Z " fill="#0C0F0F" transform="translate(32,24)"/>
<path d="M0 0 C2.30142435 1.78174788 3.80034391 3.16304165 4.48828125 6.046875 C4.72323102 8.0246611 4.86751458 10.01271872 5 12 C3.35 12.33 1.7 12.66 0 13 C0.33 13.99 0.66 14.98 1 16 C3.64 15.67 6.28 15.34 9 15 C9.625 16.875 9.625 16.875 10 19 C9.34 19.66 8.68 20.32 8 21 C6.125 20.6875 6.125 20.6875 4 20 C0.91625179 19.03632868 -0.90902264 19.00647156 -4 20 C-3.814375 19.05125 -3.62875 18.1025 -3.4375 17.125 C-2.71313368 14.10131207 -2.71313368 14.10131207 -4 12 C-4.61488281 12.08378906 -5.22976562 12.16757813 -5.86328125 12.25390625 C-6.67152344 12.35574219 -7.47976562 12.45757812 -8.3125 12.5625 C-9.11300781 12.66691406 -9.91351563 12.77132812 -10.73828125 12.87890625 C-13 13 -13 13 -16 12 C-16 11.01 -16 10.02 -16 9 C-14.98679688 9.03480469 -14.98679688 9.03480469 -13.953125 9.0703125 C-13.06109375 9.08835937 -12.1690625 9.10640625 -11.25 9.125 C-10.36828125 9.14820312 -9.4865625 9.17140625 -8.578125 9.1953125 C-5.81343316 8.98586615 -4.27058158 8.58129789 -2 7 C-0.70079254 3.45411499 -0.70079254 3.45411499 0 0 Z " fill="#171B1B" transform="translate(68,107)"/>
<path d="M0 0 C0.33 1.32 0.66 2.64 1 4 C-0.65 4.33 -2.3 4.66 -4 5 C-3.195625 5.556875 -2.39125 6.11375 -1.5625 6.6875 C1 9 1 9 2 11.5 C2 14 2 14 1 16.3125 C-1.92073037 18.77686625 -4.3070438 18.27871368 -8 18 C-8.33 16.68 -8.66 15.36 -9 14 C-7.02 14 -5.04 14 -3 14 C-3 13.34 -3 12.68 -3 12 C-3.928125 11.566875 -3.928125 11.566875 -4.875 11.125 C-7 10 -7 10 -9 8 C-8.75 4.4375 -8.75 4.4375 -8 1 C-5.29120665 -0.35439668 -2.99066732 -0.06501451 0 0 Z " fill="#D2D5D4" transform="translate(93,99)"/>
<path d="M0 0 C0.60328125 0.05800781 1.2065625 0.11601563 1.828125 0.17578125 C1.498125 1.49578125 1.168125 2.81578125 0.828125 4.17578125 C-1.151875 4.17578125 -3.131875 4.17578125 -5.171875 4.17578125 C-5.171875 6.48578125 -5.171875 8.79578125 -5.171875 11.17578125 C-2.861875 11.83578125 -0.551875 12.49578125 1.828125 13.17578125 C1.828125 14.49578125 1.828125 15.81578125 1.828125 17.17578125 C-1.10173823 17.47373344 -3.31540261 17.6826599 -6.171875 17.17578125 C-9.46608287 14.29334936 -10.94071908 12.43429681 -11.734375 8.11328125 C-10.32952346 0.77683432 -6.81679956 -0.38481933 0 0 Z " fill="#D4D5D6" transform="translate(119.171875,36.82421875)"/>
<path d="M0 0 C0.928125 0.20625 1.85625 0.4125 2.8125 0.625 C3.1425 4.255 3.4725 7.885 3.8125 11.625 C7.79004128 12.35834429 7.79004128 12.35834429 11.8125 12.625 C11.8125 13.285 11.8125 13.945 11.8125 14.625 C4.1875 15.625 4.1875 15.625 0.8125 15.625 C-0.20769573 14.6456121 -1.20899805 13.64604551 -2.1875 12.625 C-2.8475 12.625 -3.5075 12.625 -4.1875 12.625 C-5.3125 6 -5.3125 6 -4.1875 2.625 C-4.8475 2.295 -5.5075 1.965 -6.1875 1.625 C-3.1875 -0.375 -3.1875 -0.375 0 0 Z " fill="#292B2B" transform="translate(81.1875,40.375)"/>
<path d="M0 0 C0 0.66 0 1.32 0 2 C-1.98 2 -3.96 2 -6 2 C-5.67 2.66 -5.34 3.32 -5 4 C-4.86584528 6.6723621 -4.95681459 9.32250488 -5 12 C-6.98 12.99 -6.98 12.99 -9 14 C-11.62386487 10.93882432 -12 10.26826873 -12 6 C-13.32 6.33 -14.64 6.66 -16 7 C-15.64467412 4.51271887 -14.91432054 2.85590272 -13.625 0.6875 C-9.33488316 -2.07043226 -4.86726146 -0.77204837 0 0 Z " fill="#C7C8C7" transform="translate(130,100)"/>
<path d="M0 0 C8.19256018 -0.63019694 8.19256018 -0.63019694 11.5625 2 C12.036875 2.66 12.51125 3.32 13 4 C10 5 10 5 5 6 C4.67 9.63 4.34 13.26 4 17 C2.35 17 0.7 17 -1 17 C-1.02691685 14.54159395 -1.04679802 12.08348118 -1.0625 9.625 C-1.07087891 8.92632812 -1.07925781 8.22765625 -1.08789062 7.5078125 C-1.11328125 2.2265625 -1.11328125 2.2265625 0 0 Z " fill="#CCCECD" transform="translate(71,36)"/>
<path d="M0 0 C2.475 0.99 2.475 0.99 5 2 C5.49230769 9.38461538 5.49230769 9.38461538 3 12.5 C2.34 12.995 1.68 13.49 1 14 C0.67 13.34 0.34 12.68 0 12 C-0.66 12 -1.32 12 -2 12 C-2 11.34 -2 10.68 -2 10 C-2.99 9.67 -3.98 9.34 -5 9 C-5 7.35 -5 5.7 -5 4 C-4.360625 3.71125 -3.72125 3.4225 -3.0625 3.125 C-0.84793921 2.17176549 -0.84793921 2.17176549 0 0 Z " fill="#D3D5D4" transform="translate(106,94)"/>
<path d="M0 0 C5 0 5 0 6.8125 1.75 C7.534375 2.4925 8.25625 3.235 9 4 C10.65191491 5.35156675 12.31522656 6.68962066 14 8 C13.67 8.99 13.34 9.98 13 11 C12.31292969 11.13277344 11.62585937 11.26554687 10.91796875 11.40234375 C9.56638672 11.66724609 9.56638672 11.66724609 8.1875 11.9375 C7.29417969 12.11152344 6.40085937 12.28554687 5.48046875 12.46484375 C2.88602829 12.97741153 2.88602829 12.97741153 0 14 C0.5639291 10.72921124 1.45680431 9.13628438 4 7 C4.66 6.67 5.32 6.34 6 6 C5.401875 5.855625 4.80375 5.71125 4.1875 5.5625 C2.43849596 5.1127561 0.71322977 4.57107659 -1 4 C-0.67 2.68 -0.34 1.36 0 0 Z " fill="#171A1A" transform="translate(49,101)"/>
<path d="M0 0 C2.4375 0.375 2.4375 0.375 5 1 C5.33 1.66 5.66 2.32 6 3 C9.02419525 2.41196203 12.01758453 1.77321882 15 1 C15 1.99 15 2.98 15 4 C15.66 2.68 16.32 1.36 17 0 C19.375 0.25 19.375 0.25 22 1 C23.375 2.8125 23.375 2.8125 24 5 C23.625 7.25 23.625 7.25 23 9 C23 8.34 23 7.68 23 7 C22.41992188 6.93941406 21.83984375 6.87882812 21.2421875 6.81640625 C16.79907137 6.33983439 12.40094577 5.78991334 8 5 C8 6.65 8 8.3 8 10 C5.36 10.33 2.72 10.66 0 11 C0 10.34 0 9.68 0 9 C1.98 8.67 3.96 8.34 6 8 C6.33 7.01 6.66 6.02 7 5 C5.88625 5.020625 4.7725 5.04125 3.625 5.0625 C0 5 0 5 -2 4 C-2 3.34 -2 2.68 -2 2 C-1.34 2 -0.68 2 0 2 C0 1.34 0 0.68 0 0 Z " fill="#2C2F2F" transform="translate(114,32)"/>
<path d="M0 0 C3.39812547 0.26139427 6.79577222 0.44316051 10.19921875 0.62109375 C11.12347656 0.74613281 12.04773438 0.87117187 13 1 C13.33 1.66 13.66 2.32 14 3 C12.02 3.66 10.04 4.32 8 5 C8 4.34 8 3.68 8 3 C6 3.33333333 4 3.66666667 2 4 C0 4.33333333 -2 4.66666667 -4 5 C-4 6.65 -4 8.3 -4 10 C-6.52259061 8.02579865 -6.9929808 7.03254358 -7.6875 3.8125 C-7.790625 2.884375 -7.89375 1.95625 -8 1 C-4.75264307 -0.97160956 -3.57535425 -0.91990247 0 0 Z " fill="#2D3232" transform="translate(116,149)"/>
<path d="M0 0 C0.66 0 1.32 0 2 0 C2 0.66 2 1.32 2 2 C2.66 2 3.32 2 4 2 C4 2.66 4 3.32 4 4 C5.65 4.33 7.3 4.66 9 5 C9 6.32 9 7.64 9 9 C7.1875 10.8125 7.1875 10.8125 5 12 C4.01 11.67 3.02 11.34 2 11 C2 9.68 2 8.36 2 7 C1.34 7 0.68 7 0 7 C0 11.95 0 16.9 0 22 C-0.33 22 -0.66 22 -1 22 C-1.02887814 18.52085059 -1.04675687 15.04173169 -1.0625 11.5625 C-1.07087891 10.56927734 -1.07925781 9.57605469 -1.08789062 8.55273438 C-1.09111328 7.60849609 -1.09433594 6.66425781 -1.09765625 5.69140625 C-1.10289307 4.81685791 -1.10812988 3.94230957 -1.11352539 3.04125977 C-1 1 -1 1 0 0 Z " fill="#C7C7C6" transform="translate(55,31)"/>
<path d="M0 0 C0.38218767 1.65614657 0.71395102 3.32457024 1 5 C0 6 0 6 -2.20826721 6.12025452 C-3.18311569 6.11803391 -4.15796417 6.11581329 -5.16235352 6.11352539 C-6.26341934 6.11344986 -7.36448517 6.11337433 -8.49891663 6.11329651 C-9.6968132 6.10813522 -10.89470978 6.10297394 -12.12890625 6.09765625 C-13.34827377 6.0962413 -14.5676413 6.09482635 -15.82395935 6.09336853 C-19.7368307 6.08774967 -23.64964581 6.07519396 -27.5625 6.0625 C-30.20768147 6.05748743 -32.85286383 6.0529241 -35.49804688 6.04882812 C-41.99871726 6.03777411 -48.49935461 6.02101764 -55 6 C-55 5.67 -55 5.34 -55 5 C-38.29724329 3.61696919 -21.71712496 4.29255809 -5 5 C-5 3.68 -5 2.36 -5 1 C-2 0 -2 0 0 0 Z " fill="#0E1010" transform="translate(185,187)"/>
<path d="M0 0 C3 2 3 2 3.6875 4.125 C3.790625 4.74375 3.89375 5.3625 4 6 C9.3907997 5.76995266 9.3907997 5.76995266 14 3.4375 C14.33 2.963125 14.66 2.48875 15 2 C15.99 3.485 15.99 3.485 17 5 C17.99 5.33 18.98 5.66 20 6 C19.67 6.99 19.34 7.98 19 9 C17.948125 8.814375 16.89625 8.62875 15.8125 8.4375 C12.33117867 8.03800411 10.33959518 8.31495483 7 9 C5.96875 8.79375 4.9375 8.5875 3.875 8.375 C0.99302636 7.65506017 0.99302636 7.65506017 -0.875 9.4375 C-1.24625 9.953125 -1.6175 10.46875 -2 11 C-2.28571429 3.57142857 -2.28571429 3.57142857 0 0 Z " fill="#0F1211" transform="translate(80,111)"/>
<path d="M0 0 C0.66 0 1.32 0 2 0 C2 7.26 2 14.52 2 22 C0 20 0 20 -0.25 17.625 C-1.33581124 13.82466065 -3.68038193 12.90701464 -7 11 C-6.67 10.34 -6.34 9.68 -6 9 C-4.35 9 -2.7 9 -1 9 C-1.20625 8.2575 -1.4125 7.515 -1.625 6.75 C-2.04408751 3.67669159 -1.61949011 2.57213134 0 0 Z " fill="#252727" transform="translate(95,94)"/>
<path d="M0 0 C0.66 0.33 1.32 0.66 2 1 C1.67 2.32 1.34 3.64 1 5 C-1.64 5 -4.28 5 -7 5 C-7.33 7.31 -7.66 9.62 -8 12 C-8.99 11.34 -9.98 10.68 -11 10 C-11.42279102 6.7586022 -11.27051847 4.64248136 -10 1.625 C-6.78269089 -0.98906365 -4.0667151 -0.32275517 0 0 Z " fill="#C6C8C8" transform="translate(65,93)"/>
<path d="M0 0 C0.66 0 1.32 0 2 0 C3.44207941 2.88415883 3.09394887 5.41721528 3.0625 8.625 C3.05347656 9.81351563 3.04445312 11.00203125 3.03515625 12.2265625 C3.02355469 13.14179687 3.01195312 14.05703125 3 15 C1.35 14.67 -0.3 14.34 -2 14 C-2.33 10.04 -2.66 6.08 -3 2 C-2.34 2 -1.68 2 -1 2 C-0.67 1.34 -0.34 0.68 0 0 Z " fill="#CDCFCF" transform="translate(135,39)"/>
<path d="M0 0 C0.33 0 0.66 0 1 0 C3.125 7.625 3.125 7.625 2 11 C1.34 11 0.68 11 0 11 C0 12.32 0 13.64 0 15 C-1.65 14.67 -3.3 14.34 -5 14 C-5 11.36 -5 8.72 -5 6 C-3.68 6 -2.36 6 -1 6 C-0.67 4.02 -0.34 2.04 0 0 Z " fill="#2E2E2E" transform="translate(93,35)"/>
<path d="M0 0 C0.33 0 0.66 0 1 0 C1.33 2.64 1.66 5.28 2 8 C3.32 7.34 4.64 6.68 6 6 C6.0270043 7.45823212 6.04639787 8.91660675 6.0625 10.375 C6.07410156 11.18710937 6.08570313 11.99921875 6.09765625 12.8359375 C6 15 6 15 5 17 C3.68 17 2.36 17 1 17 C-0.53266582 13.93466836 -0.10276471 10.73245728 -0.0625 7.375 C-0.05798828 6.66859375 -0.05347656 5.9621875 -0.04882812 5.234375 C-0.03703875 3.48954725 -0.01910324 1.744763 0 0 Z " fill="#B8B9B7" transform="translate(122,37)"/>
<path d="M0 0 C0.66 0 1.32 0 2 0 C2 0.66 2 1.32 2 2 C3.11375 1.95875 4.2275 1.9175 5.375 1.875 C9 2 9 2 11 4 C4.565 4.495 4.565 4.495 -2 5 C-2 6.32 -2 7.64 -2 9 C-4.31 9 -6.62 9 -9 9 C-8.34 8.34 -7.68 7.68 -7 7 C-6.29289322 5.35008418 -5.62056011 3.68437744 -5 2 C-3.33333333 2 -1.66666667 2 0 2 C0 1.34 0 0.68 0 0 Z " fill="#131717" transform="translate(97,89)"/>
<path d="M0 0 C0.66 0.33 1.32 0.66 2 1 C1.25 6.75 1.25 6.75 -1 9 C-4.625 9.125 -4.625 9.125 -8 9 C-8.33 7.68 -8.66 6.36 -9 5 C-7.02 5 -5.04 5 -3 5 C-3 4.34 -3 3.68 -3 3 C-3.99 2.67 -4.98 2.34 -6 2 C-5.34 1.67 -4.68 1.34 -4 1 C-1.875 1.9375 -1.875 1.9375 0 3 C0 2.01 0 1.02 0 0 Z " fill="#D8D9D9" transform="translate(93,108)"/>
<path d="M0 0 C0.33 0 0.66 0 1 0 C1.08302368 0.91495239 1.08302368 0.91495239 1.16772461 1.84838867 C1.42155316 4.62835273 1.67948775 7.40792124 1.9375 10.1875 C2.02451172 11.14720703 2.11152344 12.10691406 2.20117188 13.09570312 C2.28818359 14.02705078 2.37519531 14.95839844 2.46484375 15.91796875 C2.543396 16.77156982 2.62194824 17.6251709 2.70288086 18.50463867 C3.00481544 21.0404426 3.46631375 23.50359947 4 26 C2.68 25.67 1.36 25.34 0 25 C-0.33 25.66 -0.66 26.32 -1 27 C-0.67 18.09 -0.34 9.18 0 0 Z " fill="#060B0D" transform="translate(131,101)"/>
<path d="M0 0 C0.2475 0.639375 0.495 1.27875 0.75 1.9375 C1.81562433 4.18741541 1.81562433 4.18741541 4.125 4.75 C4.74375 4.8325 5.3625 4.915 6 5 C5.01 5.66 4.02 6.32 3 7 C3 6.34 3 5.68 3 5 C2.01 5.66 1.02 6.32 0 7 C0.33 8.32 0.66 9.64 1 11 C-0.34345985 10.26829419 -1.67460584 9.51394247 -3 8.75 C-4.11375 8.12351562 -4.11375 8.12351562 -5.25 7.484375 C-5.8275 6.99453125 -6.405 6.5046875 -7 6 C-7 4.68 -7 3.36 -7 2 C-5.02 2 -3.04 2 -1 2 C-0.67 1.34 -0.34 0.68 0 0 Z " fill="#2A2C2B" transform="translate(106,33)"/>
<path d="M0 0 C0.33 1.32 0.66 2.64 1 4 C-2 5 -2 5 -6 5 C-6.33 5.66 -6.66 6.32 -7 7 C-9.0625 7.625 -9.0625 7.625 -11 8 C-11.21620175 5.3335118 -11.30894168 3.55995679 -10 1.1875 C-6.76011038 -0.73618446 -3.7174181 -0.18282384 0 0 Z " fill="#D6D5D5" transform="translate(105,31)"/>
<path d="M0 0 C1.2065625 0.0309375 1.2065625 0.0309375 2.4375 0.0625 C2.4375 2.7025 2.4375 5.3425 2.4375 8.0625 C0.4575 9.0525 0.4575 9.0525 -1.5625 10.0625 C-3.5625 8.0625 -3.5625 8.0625 -3.75 4.5 C-3.50921403 0.08559059 -3.50921403 0.08559059 0 0 Z " fill="#1F2221" transform="translate(122.5625,103.9375)"/>
<path d="M0 0 C2.33294775 -0.04241723 4.66702567 -0.04092937 7 0 C8 1 8 1 8.0625 3.5625 C8.041875 4.366875 8.02125 5.17125 8 6 C5.69 6 3.38 6 1 6 C0.67 6.99 0.34 7.98 0 9 C-0.33 9 -0.66 9 -1 9 C-1.07427838 5.65747276 -1.06546953 3.1964086 0 0 Z " fill="#363B39" transform="translate(45,150)"/>
<path d="M0 0 C0.66 0.33 1.32 0.66 2 1 C2 1.99 2 2.98 2 4 C2.66 4 3.32 4 4 4 C3.77160737 6.10662151 3.51650087 8.21035951 3.25 10.3125 C3.11078125 11.48425781 2.9715625 12.65601563 2.828125 13.86328125 C2 17 2 17 -0.078125 18.91796875 C-0.71234375 19.27503906 -1.3465625 19.63210937 -2 20 C-3.32 19.34 -4.64 18.68 -6 18 C-5.195625 17.54625 -4.39125 17.0925 -3.5625 16.625 C-0.91143428 15.25274335 -0.91143428 15.25274335 0 13 C0.25797575 9.04437178 0.09440189 6.40340307 -2 3 C-1.34 2.67 -0.68 2.34 0 2 C0 1.34 0 0.68 0 0 Z " fill="#2B2F2E" transform="translate(68,28)"/>
<path d="M0 0 C1.21236328 0.04060547 1.21236328 0.04060547 2.44921875 0.08203125 C3.06410156 0.11683594 3.67898437 0.15164062 4.3125 0.1875 C3.9825 1.5075 3.6525 2.8275 3.3125 4.1875 C1.3325 4.1875 -0.6475 4.1875 -2.6875 4.1875 C-3.0175 5.1775 -3.3475 6.1675 -3.6875 7.1875 C-5.0075 5.8675 -6.3275 4.5475 -7.6875 3.1875 C-5.26849268 0.20484049 -3.789448 -0.16475861 0 0 Z " fill="#CDD0CE" transform="translate(116.6875,36.8125)"/>
<path d="M0 0 C0.625 1.875 0.625 1.875 1 4 C0.34 4.66 -0.32 5.32 -1 6 C-1.495 3.525 -1.495 3.525 -2 1 C-13.55 1 -25.1 1 -37 1 C-37 0.67 -37 0.34 -37 0 C-32.53450019 -0.16821435 -28.06880839 -0.32870773 -23.6027832 -0.48217773 C-22.08480439 -0.5354146 -20.5668969 -0.59072853 -19.04907227 -0.64819336 C-16.86229831 -0.73061847 -14.67537334 -0.80547122 -12.48828125 -0.87890625 C-11.17384033 -0.9260376 -9.85939941 -0.97316895 -8.50512695 -1.02172852 C-5.48006575 -1.00297596 -2.92183626 -0.72984472 0 0 Z " fill="#080B0B" transform="translate(166,25)"/>
<path d="M0 0 C-0.15597656 0.55429687 -0.31195313 1.10859375 -0.47265625 1.6796875 C-0.66730469 2.40414063 -0.86195312 3.12859375 -1.0625 3.875 C-1.25972656 4.59429688 -1.45695312 5.31359375 -1.66015625 6.0546875 C-2.21132607 8.07273593 -2.21132607 8.07273593 -1 10 C-1.99 10 -2.98 10 -4 10 C-5.52448631 7.0173094 -6.93940067 4.181798 -8 1 C-5.29120665 -0.35439668 -2.99066732 -0.06501451 0 0 Z " fill="#242828" transform="translate(112,27)"/>
<path d="M0 0 C2.86688248 0.09096556 5.70300515 0.23767988 8.5625 0.4375 C9.36880859 0.48970703 10.17511719 0.54191406 11.00585938 0.59570312 C13.00421738 0.72577376 15.00215386 0.86229056 17 1 C17 1.66 17 2.32 17 3 C9.74 3 2.48 3 -5 3 C-3.68 2.34 -2.36 1.68 -1 1 C-0.67 0.67 -0.34 0.34 0 0 Z " fill="#26292C" transform="translate(19,9)"/>
<path d="M0 0 C0.66 0.33 1.32 0.66 2 1 C2 1.99 2 2.98 2 4 C2.99 4.33 3.98 4.66 5 5 C6.1875 7.5625 6.1875 7.5625 7 10 C6.01 10.33 5.02 10.66 4 11 C1.4375 8.875 1.4375 8.875 -1 6 C-0.8125 2.6875 -0.8125 2.6875 0 0 Z " fill="#D7D7D6" transform="translate(57,97)"/>
<path d="M0 0 C2.50298434 2.93828597 3.46930939 5.17902761 4 9 C2.35 9 0.7 9 -1 9 C-1.99 6.36 -2.98 3.72 -4 1 C-2.68 0.67 -1.36 0.34 0 0 Z " fill="#CCCCCC" transform="translate(109,108)"/>
<path d="M0 0 C0 2.97 0 5.94 0 9 C-0.66 8.34 -1.32 7.68 -2 7 C-2 8.65 -2 10.3 -2 12 C-2.66 12 -3.32 12 -4 12 C-4.66 8.04 -5.32 4.08 -6 0 C-4 -1 -4 -1 0 0 Z " fill="#DEDDDE" transform="translate(130,102)"/>
<path d="M0 0 C2.03833424 1.2739589 4.03852126 2.61061923 6 4 C6 4.66 6 5.32 6 6 C4.02 6 2.04 6 0 6 C0.33 7.32 0.66 8.64 1 10 C0.01 10.495 0.01 10.495 -1 11 C-2.125 7.6875 -2.125 7.6875 -3 4 C-1 1 -1 1 0 0 Z " fill="#262827" transform="translate(84,107)"/>
<path d="M0 0 C0.70125 0.309375 1.4025 0.61875 2.125 0.9375 C5.08936657 2.03302678 7.87698108 2.56422992 11 3 C11 5.31 11 7.62 11 10 C10.45730469 9.59007813 9.91460937 9.18015625 9.35546875 8.7578125 C8.64003906 8.21898438 7.92460938 7.68015625 7.1875 7.125 C6.47980469 6.59132813 5.77210937 6.05765625 5.04296875 5.5078125 C3.39543703 4.29185219 1.70375789 3.13583859 0 2 C0 1.34 0 0.68 0 0 Z " fill="#0E1211" transform="translate(114,115)"/>
<path d="M0 0 C2 1.5625 2 1.5625 4 4 C4.25 7.75 4.25 7.75 4 11 C2.68 11 1.36 11 0 11 C0 7.37 0 3.74 0 0 Z " fill="#111312" transform="translate(68,107)"/>
<path d="M0 0 C1.32 0.33 2.64 0.66 4 1 C3.34 4.3 2.68 7.6 2 11 C1.34 11 0.68 11 0 11 C0 7.37 0 3.74 0 0 Z " fill="#282929" transform="translate(101,107)"/>
<path d="M0 0 C2 1 2 1 4 4 C4.66 3.34 5.32 2.68 6 2 C5.88590407 3.45922693 5.75834456 4.91740598 5.625 6.375 C5.55539063 7.18710938 5.48578125 7.99921875 5.4140625 8.8359375 C5 11 5 11 3 13 C2.49487756 11.39743892 1.99608373 9.79288208 1.5 8.1875 C1.2215625 7.29417969 0.943125 6.40085937 0.65625 5.48046875 C0 3 0 3 0 0 Z " fill="#121414" transform="translate(72,97)"/>
<path d="M0 0 C0.99 0.33 1.98 0.66 3 1 C2.625 3.9375 2.625 3.9375 2 7 C1.01 7.495 1.01 7.495 0 8 C0.33 8.99 0.66 9.98 1 11 C0.01 10.67 -0.98 10.34 -2 10 C-3.06351675 6.61608307 -3.21442982 5.4195366 -1.5625 2.1875 C-1.046875 1.465625 -0.53125 0.74375 0 0 Z " fill="#111413" transform="translate(112,100)"/>
<path d="M0 0 C0.433125 0.474375 0.86625 0.94875 1.3125 1.4375 C3.02309613 3.23686957 3.02309613 3.23686957 6 4 C5.67 4.99 5.34 5.98 5 7 C3.88625 6.814375 2.7725 6.62875 1.625 6.4375 C-1.82568861 5.68319343 -1.82568861 5.68319343 -4 7 C-4 6.34 -4 5.68 -4 5 C-5.32 4.67 -6.64 4.34 -8 4 C-6.865625 3.71125 -5.73125 3.4225 -4.5625 3.125 C-3.386875 2.75375 -2.21125 2.3825 -1 2 C-0.67 1.34 -0.34 0.68 0 0 Z " fill="#161919" transform="translate(94,113)"/>
<path d="M0 0 C0.33 1.32 0.66 2.64 1 4 C-1.31 4.66 -3.62 5.32 -6 6 C-6.66 4.35 -7.32 2.7 -8 1 C-5.29120665 -0.35439668 -2.99066732 -0.06501451 0 0 Z " fill="#CBCECD" transform="translate(93,99)"/>
<path d="M0 0 C2.97 0.33 5.94 0.66 9 1 C9 1.99 9 2.98 9 4 C6.1875 4.625 6.1875 4.625 3 5 C2.01 4.34 1.02 3.68 0 3 C0 2.01 0 1.02 0 0 Z " fill="#CECFCF" transform="translate(84,49)"/>
<path d="M0 0 C1.375 2.0625 1.375 2.0625 2 4 C-0.64 4 -3.28 4 -6 4 C-6 3.01 -6 2.02 -6 1 C-6.66 0.67 -7.32 0.34 -8 0 C-5.04063954 -1.47968023 -3.13239866 -0.84835797 0 0 Z " fill="#C6C6C6" transform="translate(82,37)"/>
<path d="M0 0 C0.66 0 1.32 0 2 0 C2 0.66 2 1.32 2 2 C1.34 2 0.68 2 0 2 C-0.103125 2.7425 -0.20625 3.485 -0.3125 4.25 C-1.04933797 7.1973519 -1.94799142 8.78383074 -4 11 C-4.66 11 -5.32 11 -6 11 C-6.33 12.32 -6.66 13.64 -7 15 C-7.33 14.01 -7.66 13.02 -8 12 C-7.67 11.34 -7.34 10.68 -7 10 C-6.34 10 -5.68 10 -5 10 C-5 8.68 -5 7.36 -5 6 C-4.01 6 -3.02 6 -2 6 C-1.34 4.02 -0.68 2.04 0 0 Z " fill="#0E1010" transform="translate(38,158)"/>
<path d="M0 0 C2.0625 0.4375 2.0625 0.4375 4 1 C3.67 3.64 3.34 6.28 3 9 C2.01 8.67 1.02 8.34 0 8 C-0.38063221 5.6739143 -0.71269945 3.33944736 -1 1 C-0.67 0.67 -0.34 0.34 0 0 Z " fill="#292A2A" transform="translate(129,41)"/>
<path d="M0 0 C1.98 0 3.96 0 6 0 C6 0.66 6 1.32 6 2 C6.66 2 7.32 2 8 2 C8 2.66 8 3.32 8 4 C5.69 4.33 3.38 4.66 1 5 C0.67 3.35 0.34 1.7 0 0 Z " fill="#303535" transform="translate(74,150)"/>
<path d="M0 0 C0.33 2.31 0.66 4.62 1 7 C-0.32 6.67 -1.64 6.34 -3 6 C-3.33 6.66 -3.66 7.32 -4 8 C-4 5.69 -4 3.38 -4 1 C-2 0 -2 0 0 0 Z " fill="#0F1317" transform="translate(134,120)"/>
<path d="M0 0 C0.33 0 0.66 0 1 0 C1 3.63 1 7.26 1 11 C-1.31 11.33 -3.62 11.66 -6 12 C-5.34 11.67 -4.68 11.34 -4 11 C-1.90530151 7.59611495 -1.03184201 3.83255602 0 0 Z " fill="#C2C2C3" transform="translate(125,106)"/>
<path d="M0 0 C0.99 0.33 1.98 0.66 3 1 C5.14255793 0.61067144 5.14255793 0.61067144 7 0 C6.67 1.32 6.34 2.64 6 4 C3.69 4 1.38 4 -1 4 C-0.67 2.68 -0.34 1.36 0 0 Z " fill="#3C413F" transform="translate(56,151)"/>
<path d="M0 0 C2.31 0 4.62 0 7 0 C7.33 1.65 7.66 3.3 8 5 C7.34 5 6.68 5 6 5 C5.67 4.34 5.34 3.68 5 3 C4.67 3.66 4.34 4.32 4 5 C3.34 5 2.68 5 2 5 C2 4.34 2 3.68 2 3 C1.34 2.67 0.68 2.34 0 2 C0 1.34 0 0.68 0 0 Z " fill="#3D4140" transform="translate(45,150)"/>
<path d="M0 0 C4.29 0.33 8.58 0.66 13 1 C9.5143254 3.32378307 7.13523019 3.63078302 3 4 C2.01 3.67 1.02 3.34 0 3 C0 2.01 0 1.02 0 0 Z " fill="#0C0F10" transform="translate(52,116)"/>
<path d="M0 0 C2.97 0.495 2.97 0.495 6 1 C6 1.99 6 2.98 6 4 C4.02 4.33 2.04 4.66 0 5 C0 3.35 0 1.7 0 0 Z " fill="#2F3332" transform="translate(101,98)"/>
<path d="M0 0 C2 0 4 0 6 0 C6 1.65 6 3.3 6 5 C4.34385343 5.38218767 2.67542976 5.71395102 1 6 C0 5 0 5 -0.0625 2.4375 C-0.041875 1.633125 -0.02125 0.82875 0 0 Z " fill="#2F302E" transform="translate(113,43)"/>
<path d="M0 0 C2.475 0.495 2.475 0.495 5 1 C5 2.32 5 3.64 5 5 C3.0625 5.5625 3.0625 5.5625 1 6 C0 5 0 5 -0.0625 2.4375 C-0.041875 1.633125 -0.02125 0.82875 0 0 Z " fill="#353A38" transform="translate(59,35)"/>
<path d="M0 0 C0.33 0 0.66 0 1 0 C1 2.31 1 4.62 1 7 C-0.65 6.67 -2.3 6.34 -4 6 C-3.67 4.68 -3.34 3.36 -3 2 C-2.01 2 -1.02 2 0 2 C0 1.34 0 0.68 0 0 Z " fill="#232826" transform="translate(207,188)"/>
<path d="M0 0 C0.66 0.33 1.32 0.66 2 1 C2 2.32 2 3.64 2 5 C-0.5 6.75 -0.5 6.75 -3 8 C-2.45276317 4.62537285 -1.9451 2.91765 0 0 Z " fill="#262A29" transform="translate(27,178)"/>
<path d="M0 0 C2.475 0.99 2.475 0.99 5 2 C4.67 2.99 4.34 3.98 4 5 C2.35 5 0.7 5 -1 5 C-1 2 -1 2 0 0 Z " fill="#C6C9C8" transform="translate(106,94)"/>
<path d="M0 0 C1.41687119 4.25061356 0.19320039 6.71851625 -1 11 C-0.34 11.33 0.32 11.66 1 12 C-0.32 11.67 -1.64 11.34 -3 11 C-2.25 3.375 -2.25 3.375 0 0 Z " fill="#282B2C" transform="translate(143,43)"/>
<path d="M0 0 C1.32 0 2.64 0 4 0 C4.33 1.65 4.66 3.3 5 5 C3.0625 5.5625 3.0625 5.5625 1 6 C0 5 0 5 -0.0625 2.4375 C-0.041875 1.633125 -0.02125 0.82875 0 0 Z " fill="#2E3233" transform="translate(132,149)"/>
<path d="M0 0 C0.33 0.99 0.66 1.98 1 3 C-0.32 3.33 -1.64 3.66 -3 4 C-3 4.66 -3 5.32 -3 6 C-4.32 6 -5.64 6 -7 6 C-7 4.68 -7 3.36 -7 2 C-5.02 2 -3.04 2 -1 2 C-0.67 1.34 -0.34 0.68 0 0 Z " fill="#343535" transform="translate(106,33)"/>
<path d="M0 0 C0.33 1.32 0.66 2.64 1 4 C-0.65 4.33 -2.3 4.66 -4 5 C-4.33 3.68 -4.66 2.36 -5 1 C-3 0 -3 0 0 0 Z " fill="#B3B5B6" transform="translate(73,119)"/>
<path d="M0 0 C0.66 0 1.32 0 2 0 C1.67 1.65 1.34 3.3 1 5 C0.01 5 -0.98 5 -2 5 C-2.66 6.32 -3.32 7.64 -4 9 C-3.4739075 5.21213403 -2.61896089 2.82847776 0 0 Z " fill="#0D1210" transform="translate(206,185)"/>
<path d="M0 0 C2.64 0 5.28 0 8 0 C7.67 0.99 7.34 1.98 7 3 C4.69 2.67 2.38 2.34 0 2 C0 1.34 0 0.68 0 0 Z " fill="#323735" transform="translate(86,150)"/>
<path d="M0 0 C0.66 0.33 1.32 0.66 2 1 C1.67 2.98 1.34 4.96 1 7 C0.34 6.67 -0.32 6.34 -1 6 C-1 5.34 -1 4.68 -1 4 C-3.475 3.01 -3.475 3.01 -6 2 C-5.34 1.67 -4.68 1.34 -4 1 C-1.875 1.9375 -1.875 1.9375 0 3 C0 2.01 0 1.02 0 0 Z " fill="#B7B6B7" transform="translate(93,108)"/>
<path d="M0 0 C0.86625 0.4640625 0.86625 0.4640625 1.75 0.9375 C3.84294184 1.92583364 5.74535275 2.5168613 8 3 C8 3.99 8 4.98 8 6 C5.69 5.34 3.38 4.68 1 4 C0.67 2.68 0.34 1.36 0 0 Z " fill="#DFE0E0" transform="translate(85,105)"/>
<path d="M0 0 C1.65 0 3.3 0 5 0 C4.34 2.31 3.68 4.62 3 7 C2.67 6.01 2.34 5.02 2 4 C1.01 4.33 0.02 4.66 -1 5 C-0.67 3.35 -0.34 1.7 0 0 Z " fill="#C7CAC9" transform="translate(77,105)"/>
<path d="M0 0 C0 0.66 0 1.32 0 2 C-3.41139003 3.09651823 -6.20655581 2.94215473 -9.75 2.5625 C-11.22726563 2.40974609 -11.22726563 2.40974609 -12.734375 2.25390625 C-13.48203125 2.17011719 -14.2296875 2.08632812 -15 2 C-15 1.67 -15 1.34 -15 1 C-13.25021843 0.83105557 -11.50016388 0.66493691 -9.75 0.5 C-8.77546875 0.4071875 -7.8009375 0.314375 -6.796875 0.21875 C-4.53697847 0.04199832 -2.26679807 0 0 0 Z " fill="#353939" transform="translate(112,92)"/>
<path d="M0 0 C1.98 0 3.96 0 6 0 C6 0.66 6 1.32 6 2 C4 3.625 4 3.625 2 5 C1.34 4.67 0.68 4.34 0 4 C0 2.68 0 1.36 0 0 Z " fill="#CACACB" transform="translate(94,49)"/>
<path d="M0 0 C0.33 0 0.66 0 1 0 C3.125 7.625 3.125 7.625 2 11 C1.34 10.67 0.68 10.34 0 10 C-1.11421833 6.35346727 -0.94296589 3.66708957 0 0 Z " fill="#40413F" transform="translate(93,35)"/>
<path d="M0 0 C0.33 0.66 0.66 1.32 1 2 C1.66 2 2.32 2 3 2 C3.33 1.34 3.66 0.68 4 0 C4 0.99 4 1.98 4 3 C4.66 3.33 5.32 3.66 6 4 C4.02 4.66 2.04 5.32 0 6 C-1 3 -1 3 0 0 Z " fill="#C8CAC9" transform="translate(95,36)"/>
<path d="M0 0 C1.98 0 3.96 0 6 0 C6 1.32 6 2.64 6 4 C3.03 3.505 3.03 3.505 0 3 C0 2.01 0 1.02 0 0 Z " fill="#090C0B" transform="translate(202,27)"/>
<path d="M0 0 C3.875 1.75 3.875 1.75 5 4 C4.01 4 3.02 4 2 4 C2 4.66 2 5.32 2 6 C1.01 5.67 0.02 5.34 -1 5 C-0.67 3.35 -0.34 1.7 0 0 Z " fill="#2D2F32" transform="translate(108,50)"/>
<path d="M0 0 C2.31 0.66 4.62 1.32 7 2 C7 3.32 7 4.64 7 6 C6.01 5.67 5.02 5.34 4 5 C3.67 4.34 3.34 3.68 3 3 C2.01 2.67 1.02 2.34 0 2 C0 1.34 0 0.68 0 0 Z " fill="#2C2B29" transform="translate(95,43)"/>
<path d="M0 0 C0.99 0 1.98 0 3 0 C3 1.98 3 3.96 3 6 C2.01 6.33 1.02 6.66 0 7 C0 4.69 0 2.38 0 0 Z " fill="#090F0C" transform="translate(120,104)"/>
<path d="M0 0 C0.66 0 1.32 0 2 0 C3.4606285 2.64738916 4 3.89448334 4 7 C3.01 7 2.02 7 1 7 C0.67 4.69 0.34 2.38 0 0 Z " fill="#161716" transform="translate(50,92)"/>
<path d="M0 0 C1.485 0.99 1.485 0.99 3 2 C4.65549531 2.38499891 6.3222433 2.72793135 8 3 C8 3.33 8 3.66 8 4 C6.329375 4.2165625 6.329375 4.2165625 4.625 4.4375 C1.17857953 4.78372035 1.17857953 4.78372035 -1 6 C-0.67 4.02 -0.34 2.04 0 0 Z " fill="#0E1311" transform="translate(57,88)"/>
<path d="M0 0 C0.66 0 1.32 0 2 0 C2 1.98 2 3.96 2 6 C0.68 5.67 -0.64 5.34 -2 5 C-1.125 1.125 -1.125 1.125 0 0 Z " fill="#D9DBDA" transform="translate(73,47)"/>
<path d="M0 0 C0.66 0 1.32 0 2 0 C3.625 2 3.625 2 5 4 C2.36 4.33 -0.28 4.66 -3 5 C-2.34 4.67 -1.68 4.34 -1 4 C-0.34786708 1.97536745 -0.34786708 1.97536745 0 0 Z " fill="#D3D3D3" transform="translate(62,40)"/>
<path d="M0 0 C1.98 0 3.96 0 6 0 C5.67 1.32 5.34 2.64 5 4 C2.525 3.01 2.525 3.01 0 2 C0 1.34 0 0.68 0 0 Z " fill="#DEDEE0" transform="translate(129,38)"/>
<path d="M0 0 C0.66 0.33 1.32 0.66 2 1 C1.67 2.32 1.34 3.64 1 5 C-0.32 5 -1.64 5 -3 5 C-1.125 1.125 -1.125 1.125 0 0 Z " fill="#2B3132" transform="translate(156,148)"/>
<path d="M0 0 C1.65 0 3.3 0 5 0 C4.67 1.65 4.34 3.3 4 5 C2.35 4.01 0.7 3.02 -1 2 C-0.67 1.34 -0.34 0.68 0 0 Z " fill="#343635" transform="translate(89,103)"/>
<path d="M0 0 C3.04386724 -0.08226668 5.07175348 0.02391783 8 1 C8 1.66 8 2.32 8 3 C5.69 3 3.38 3 1 3 C0.67 2.01 0.34 1.02 0 0 Z " fill="#0C1112" transform="translate(118,96)"/>
<path d="M0 0 C0.99 0.33 1.98 0.66 3 1 C3 2.98 3 4.96 3 7 C2.01 7.495 2.01 7.495 1 8 C0.67 5.36 0.34 2.72 0 0 Z " fill="#141A18" transform="translate(66,88)"/>
<path d="M0 0 C2.97 0.33 5.94 0.66 9 1 C9 1.33 9 1.66 9 2 C7.35 2 5.7 2 4 2 C3.67 2.66 3.34 3.32 3 4 C2.01 3.67 1.02 3.34 0 3 C0 2.01 0 1.02 0 0 Z " fill="#2E3032" transform="translate(66,52)"/>
</svg>
